<?xml version="1.0" encoding="UTF-8"?>
<svg version="1.1" xmlns="http://www.w3.org/2000/svg" width="500" height="500">
<path d="M0 0 C0.94741058 -0.00043808 1.89482117 -0.00087616 2.87094116 -0.00132751 C5.97138805 0.00074587 9.0712796 0.02400812 12.17163086 0.04760742 C14.33352869 0.05320854 16.49543036 0.0574762 18.65733337 0.06047058 C24.32415434 0.07187872 29.99074155 0.10131112 35.6574707 0.13458252 C42.46908488 0.17079163 49.28077759 0.18446374 56.09246063 0.20194244 C66.41979411 0.23095087 76.74661554 0.28846653 87.07397461 0.34057617 C87.07397461 15.85057617 87.07397461 31.36057617 87.07397461 47.34057617 C91.26084961 47.29932617 95.44772461 47.25807617 99.76147461 47.21557617 C101.7292688 47.21920166 101.7292688 47.21920166 103.73681641 47.22290039 C109.58989514 47.26755773 109.58989514 47.26755773 114.84594727 45.12280273 C116.32540055 43.38718037 116.32540055 43.38718037 118.07397461 40.34057617 C119.73808308 38.67135523 121.40465613 37.0045868 123.07397461 35.34057617 C124.5358626 33.63197818 125.97326416 31.90215017 127.38647461 30.15307617 C128.15733398 29.20432617 128.92819336 28.25557617 129.72241211 27.27807617 C131.28201689 25.32986555 132.82909104 23.37155304 134.36303711 21.40307617 C135.42651367 20.04182617 135.42651367 20.04182617 136.51147461 18.65307617 C137.46860352 17.40977539 137.46860352 17.40977539 138.44506836 16.14135742 C139.25137695 15.2499707 139.25137695 15.2499707 140.07397461 14.34057617 C140.73397461 14.34057617 141.39397461 14.34057617 142.07397461 14.34057617 C142.73397461 12.69057617 143.39397461 11.04057617 144.07397461 9.34057617 C144.73397461 9.34057617 145.39397461 9.34057617 146.07397461 9.34057617 C146.38334961 8.72182617 146.69272461 8.10307617 147.01147461 7.46557617 C147.69897461 6.09057617 148.38647461 4.71557617 149.07397461 3.34057617 C149.73397461 3.34057617 150.39397461 3.34057617 151.07397461 3.34057617 C151.40397461 2.35057617 151.73397461 1.36057617 152.07397461 0.34057617 C156.0531262 0.31170634 160.03225114 0.29382211 164.01147461 0.27807617 C165.1477832 0.26969727 166.2840918 0.26131836 167.45483398 0.25268555 C168.53442383 0.24946289 169.61401367 0.24624023 170.72631836 0.24291992 C172.22666626 0.2350647 172.22666626 0.2350647 173.75732422 0.22705078 C176.07397461 0.34057617 176.07397461 0.34057617 177.07397461 1.34057617 C177.43294897 7.80211463 177.43294897 7.80211463 175.07397461 11.34057617 C174.41397461 11.34057617 173.75397461 11.34057617 173.07397461 11.34057617 C172.82518555 11.89874023 172.57639648 12.4569043 172.32006836 13.03198242 C170.85783063 15.74101847 169.10553448 17.91021937 167.13647461 20.27807617 C166.33725586 21.24100586 165.53803711 22.20393555 164.71459961 23.19604492 C163.83519549 24.24489682 162.95495771 25.29305019 162.07397461 26.34057617 C161.38078125 27.16549561 161.38078125 27.16549561 160.67358398 28.00708008 C156.40190889 33.08371173 152.11680274 38.14786923 147.76147461 43.15307617 C145.09078374 46.23404708 142.721258 49.50692471 140.37084961 52.83666992 C139.94288086 53.33295898 139.51491211 53.82924805 139.07397461 54.34057617 C138.41397461 54.34057617 137.75397461 54.34057617 137.07397461 54.34057617 C135.56467278 57.72690127 135.56467278 57.72690127 135.07397461 61.34057617 C135.73397461 61.34057617 136.39397461 61.34057617 137.07397461 61.34057617 C138.68031476 63.07449568 140.21150331 64.87866717 141.69897461 66.71557617 C142.51624023 67.71331055 143.33350586 68.71104492 144.17553711 69.73901367 C146.07397461 72.34057617 146.07397461 72.34057617 146.07397461 74.34057617 C146.73397461 74.34057617 147.39397461 74.34057617 148.07397461 74.34057617 C149.98413086 76.42260742 149.98413086 76.42260742 152.13647461 79.15307617 C152.84932617 80.04639648 153.56217773 80.9397168 154.29663086 81.86010742 C156.07397461 84.34057617 156.07397461 84.34057617 157.07397461 87.34057617 C157.73397461 87.34057617 158.39397461 87.34057617 159.07397461 87.34057617 C159.07397461 88.00057617 159.07397461 88.66057617 159.07397461 89.34057617 C159.73397461 89.34057617 160.39397461 89.34057617 161.07397461 89.34057617 C161.48389648 90.02764648 161.89381836 90.7147168 162.31616211 91.42260742 C164.52360611 95.08696446 167.25764034 97.94351779 170.19897461 101.02807617 C175.81769053 106.95601885 177.20452018 109.24675063 177.07397461 117.34057617 C155.99152473 119.56621763 155.99152473 119.56621763 149.7121582 115.9987793 C145.56768345 112.41203684 142.64999223 108.14683723 140.07397461 103.34057617 C140.07397461 102.68057617 140.07397461 102.02057617 140.07397461 101.34057617 C139.41397461 101.34057617 138.75397461 101.34057617 138.07397461 101.34057617 C136.29009733 99.2293544 134.61033887 97.10764897 132.94897461 94.90307617 C129.13467622 89.93929747 125.24900095 85.12538028 121.02319336 80.50073242 C119.07397461 78.34057617 119.07397461 78.34057617 117.98022461 76.56445312 C115.7236075 73.2350111 114.16600586 71.58587893 110.15576172 70.68505859 C106.64713607 70.42694752 103.21803771 70.37195521 99.69897461 70.40307617 C95.53272461 70.38245117 91.36647461 70.36182617 87.07397461 70.34057617 C87.07397461 85.85057617 87.07397461 101.36057617 87.07397461 117.34057617 C79.81397461 117.34057617 72.55397461 117.34057617 65.07397461 117.34057617 C65.07397461 86.65057617 65.07397461 55.96057617 65.07397461 24.34057617 C41.64397461 24.34057617 18.21397461 24.34057617 -5.92602539 24.34057617 C-6.25602539 55.03057617 -6.58602539 85.72057617 -6.92602539 117.34057617 C-14.18602539 117.34057617 -21.44602539 117.34057617 -28.92602539 117.34057617 C-29.59950169 111.27928947 -30.07831936 105.54354785 -30.0871582 99.49121094 C-30.09212311 98.65739899 -30.09708801 97.82358704 -30.10220337 96.96450806 C-30.11667462 94.2369908 -30.12359995 91.50953158 -30.12915039 88.78198242 C-30.13197777 87.84288465 -30.13480515 86.90378689 -30.1377182 85.93623161 C-30.152646 80.97099405 -30.16191718 76.0057851 -30.16625977 71.04052734 C-30.17174949 65.93548666 -30.1958066 60.83071197 -30.22423172 55.72575474 C-30.24292276 51.776741 -30.24806703 47.82779072 -30.24959564 43.8787365 C-30.25260571 41.99742102 -30.26057803 40.11610622 -30.27378082 38.23483467 C-30.40378184 18.29608907 -30.40378184 18.29608907 -25.92602539 9.34057617 C-25.26602539 9.34057617 -24.60602539 9.34057617 -23.92602539 9.34057617 C-23.92602539 8.68057617 -23.92602539 8.02057617 -23.92602539 7.34057617 C-17.35061312 0.7651639 -8.86200075 -0.10928082 0 0 Z " fill="#F5F4F4" transform="translate(174.926025390625,184.659423828125)"/>
<path d="M0 0 C7.92 0 15.84 0 24 0 C24 0.33 24 0.66 24 1 C23.36497559 0.99363525 22.72995117 0.98727051 22.07568359 0.98071289 C19.17428319 0.9719817 16.27603247 1.01677124 13.375 1.0625 C11.87646484 1.04606445 11.87646484 1.04606445 10.34765625 1.02929688 C4.81221483 1.07662875 4.81221483 1.07662875 0.03369141 3.53491211 C-1.46333502 5.28999128 -2.73194877 7.07628406 -4 9 C-5.31590635 10.35053546 -6.64078414 11.69306167 -8 13 C-8.66 12.67 -9.32 12.34 -10 12 C-9.34 11.01 -8.68 10.02 -8 9 C-7.34 9 -6.68 9 -6 9 C-5.690625 8.38125 -5.38125 7.7625 -5.0625 7.125 C-4.375 5.75 -3.6875 4.375 -3 3 C-2.34 3 -1.68 3 -1 3 C-0.67 2.01 -0.34 1.02 0 0 Z " fill="#959394" transform="translate(327,185)"/>
<path d="M0 0 C0.66 0.33 1.32 0.66 2 1 C1.54109375 1.51949219 1.0821875 2.03898438 0.609375 2.57421875 C-2.68382608 6.31712166 -5.92952189 10.06978801 -9 14 C-8.125 8.25 -8.125 8.25 -7 6 C-6.34 6 -5.68 6 -5 6 C-5 5.34 -5 4.68 -5 4 C-3.37373596 2.61767557 -1.7074998 1.28062485 0 0 Z " fill="#BDBBBC" transform="translate(156,188)"/>
</svg>
